HIERARCHY
ROOT pelvis
{
	OFFSET 0.003123 -0.351407 0.012037
	CHANNELS 6 Xposition Yposition Zposition Zrotation Yrotation Xrotation 
	JOINT left_hip
	{
		OFFSET 0.058189 -0.092763 -0.026001
		CHANNELS 3 Zrotation Yrotation Xrotation
		JOINT left_knee
		{
			OFFSET 0.054695 -0.378753 -0.009396
			CHANNELS 3 Zrotation Yrotation Xrotation
			JOINT left_ankle
			{
				OFFSET -0.043453 -0.403059 -0.031876
				CHANNELS 3 Zrotation Yrotation Xrotation
				JOINT left_foot
				{
					OFFSET 0.047257 -0.057997 0.118216
					CHANNELS 3 Zrotation Yrotation Xrotation
					End Site
					{
						OFFSET 0.000000 0.000000 0.000000
					}
				}
			}
		}
	}
	JOINT right_hip
	{
		OFFSET -0.063267 -0.103908 -0.021250
		CHANNELS 3 Zrotation Yrotation Xrotation
		JOINT right_knee
		{
			OFFSET -0.044210 -0.362380 -0.016824
			CHANNELS 3 Zrotation Yrotation Xrotation
			JOINT right_ankle
			{
				OFFSET 0.015417 -0.410728 -0.020192
				CHANNELS 3 Zrotation Yrotation Xrotation
				JOINT right_foot
				{
					OFFSET -0.038812 -0.058328 0.119049
					CHANNELS 3 Zrotation Yrotation Xrotation
					End Site
					{
						OFFSET 0.000000 0.000000 0.000000
					}
				}
			}
		}
	}
	JOINT spine_1
	{
		OFFSET -0.002763 0.109891 -0.027618
		CHANNELS 3 Zrotation Yrotation Xrotation
		JOINT spine_2
		{
			OFFSET 0.009448 0.131853 -0.005940
			CHANNELS 3 Zrotation Yrotation Xrotation
			JOINT spine_3
			{
				OFFSET -0.011330 0.052235 0.028447
				CHANNELS 3 Zrotation Yrotation Xrotation
				JOINT neck
				{
					OFFSET -0.012164 0.165167 -0.031615
					CHANNELS 3 Zrotation Yrotation Xrotation
					JOINT head
					{
						OFFSET 0.024783 0.160452 0.020737
						CHANNELS 3 Zrotation Yrotation Xrotation
						End Site
						{
							OFFSET 0.000000 0.000000 0.000000
						}
					}
				}
				JOINT left_collar
				{
					OFFSET 0.046364 0.084944 -0.007220
					CHANNELS 3 Zrotation Yrotation Xrotation
					JOINT left_shoulder
					{
						OFFSET 0.119239 0.057728 -0.015461
						CHANNELS 3 Zrotation Yrotation Xrotation
						JOINT left_elbow
						{
							OFFSET 0.254123 -0.072151 -0.042459
							CHANNELS 3 Zrotation Yrotation Xrotation
							JOINT left_wrist
							{
								OFFSET 0.251987 0.023221 -0.002472
								CHANNELS 3 Zrotation Yrotation Xrotation
								JOINT left_index_1
								{
									OFFSET 0.101902 -0.008688 0.019351
									CHANNELS 3 Zrotation Yrotation Xrotation
									JOINT left_index_2
									{
										OFFSET 0.030149 -0.011154 0.001151
										CHANNELS 3 Zrotation Yrotation Xrotation
										JOINT left_index_3
										{
											OFFSET 0.006504 -0.021577 -0.002433
											CHANNELS 3 Zrotation Yrotation Xrotation
											End Site
											{
												OFFSET 0.000000 0.000000 0.000000
											}
										}
									}
								}
								JOINT left_middle_1
								{
									OFFSET 0.109398 -0.006328 -0.003981
									CHANNELS 3 Zrotation Yrotation Xrotation
									JOINT left_middle_2
									{
										OFFSET 0.026472 -0.015218 -0.004641
										CHANNELS 3 Zrotation Yrotation Xrotation
										JOINT left_middle_3
										{
											OFFSET 0.005022 -0.023347 -0.001911
											CHANNELS 3 Zrotation Yrotation Xrotation
											End Site
											{
												OFFSET 0.000000 0.000000 0.000000
											}
										}
									}
								}
								JOINT left_pinky_1
								{
									OFFSET 0.084047 -0.014539 -0.043750
									CHANNELS 3 Zrotation Yrotation Xrotation
									JOINT left_pinky_2
									{
										OFFSET 0.012124 -0.014448 -0.005375
										CHANNELS 3 Zrotation Yrotation Xrotation
										JOINT left_pinky_3
										{
											OFFSET 0.003798 -0.018853 0.000167
											CHANNELS 3 Zrotation Yrotation Xrotation
											End Site
											{
												OFFSET 0.000000 0.000000 0.000000
											}
										}
									}
								}
								JOINT left_ring_1
								{
									OFFSET 0.097444 -0.009268 -0.027345
									CHANNELS 3 Zrotation Yrotation Xrotation
									JOINT left_ring_2
									{
										OFFSET 0.023561 -0.016057 -0.001895
										CHANNELS 3 Zrotation Yrotation Xrotation
										JOINT left_ring_3
										{
											OFFSET 0.004257 -0.023548 0.000814
											CHANNELS 3 Zrotation Yrotation Xrotation
											End Site
											{
												OFFSET 0.000000 0.000000 0.000000
											}
										}
									}
								}
								JOINT left_thumb_1
								{
									OFFSET 0.040636 -0.017977 0.025611
									CHANNELS 3 Zrotation Yrotation Xrotation
									JOINT left_thumb_2
									{
										OFFSET 0.021637 -0.017639 0.011623
										CHANNELS 3 Zrotation Yrotation Xrotation
										JOINT left_thumb_3
										{
											OFFSET 0.024002 -0.008356 0.006548
											CHANNELS 3 Zrotation Yrotation Xrotation
											End Site
											{
												OFFSET 0.000000 0.000000 0.000000
											}
										}
									}
								}
							}
						}
					}
				}
				JOINT right_collar
				{
					OFFSET -0.047695 0.084339 -0.013400
					CHANNELS 3 Zrotation Yrotation Xrotation
					JOINT right_shoulder
					{
						OFFSET -0.102578 0.053524 -0.012669
						CHANNELS 3 Zrotation Yrotation Xrotation
						JOINT right_elbow
						{
							OFFSET -0.271150 -0.036492 -0.026467
							CHANNELS 3 Zrotation Yrotation Xrotation
							JOINT right_wrist
							{
								OFFSET -0.249267 -0.004533 -0.015325
								CHANNELS 3 Zrotation Yrotation Xrotation
								JOINT right_index_1
								{
									OFFSET -0.099881 -0.011783 0.019600
									CHANNELS 3 Zrotation Yrotation Xrotation
									JOINT right_index_2
									{
										OFFSET -0.030148 -0.011154 0.001151
										CHANNELS 3 Zrotation Yrotation Xrotation
										JOINT right_index_3
										{
											OFFSET -0.006505 -0.021577 -0.002432
											CHANNELS 3 Zrotation Yrotation Xrotation
											End Site
											{
												OFFSET 0.000000 0.000000 0.000000
											}
										}
									}
								}
								JOINT right_middle_1
								{
									OFFSET -0.107376 -0.009422 -0.003734
									CHANNELS 3 Zrotation Yrotation Xrotation
									JOINT right_middle_2
									{
										OFFSET -0.026472 -0.015218 -0.004641
										CHANNELS 3 Zrotation Yrotation Xrotation
										JOINT right_middle_3
										{
											OFFSET -0.005022 -0.023347 -0.001911
											CHANNELS 3 Zrotation Yrotation Xrotation
											End Site
											{
												OFFSET 0.000000 0.000000 0.000000
											}
										}
									}
								}
								JOINT right_pinky_1
								{
									OFFSET -0.082027 -0.017634 -0.043503
									CHANNELS 3 Zrotation Yrotation Xrotation
									JOINT right_pinky_2
									{
										OFFSET -0.012123 -0.014448 -0.005374
										CHANNELS 3 Zrotation Yrotation Xrotation
										JOINT right_pinky_3
										{
											OFFSET -0.003798 -0.018852 0.000167
											CHANNELS 3 Zrotation Yrotation Xrotation
											End Site
											{
												OFFSET 0.000000 0.000000 0.000000
											}
										}
									}
								}
								JOINT right_ring_1
								{
									OFFSET -0.095423 -0.012362 -0.027099
									CHANNELS 3 Zrotation Yrotation Xrotation
									JOINT right_ring_2
									{
										OFFSET -0.023561 -0.016057 -0.001895
										CHANNELS 3 Zrotation Yrotation Xrotation
										JOINT right_ring_3
										{
											OFFSET -0.004257 -0.023548 0.000816
											CHANNELS 3 Zrotation Yrotation Xrotation
											End Site
											{
												OFFSET 0.000000 0.000000 0.000000
											}
										}
									}
								}
								JOINT right_thumb_1
								{
									OFFSET -0.038613 -0.021074 0.025861
									CHANNELS 3 Zrotation Yrotation Xrotation
									JOINT right_thumb_2
									{
										OFFSET -0.021636 -0.017639 0.011623
										CHANNELS 3 Zrotation Yrotation Xrotation
										JOINT right_thumb_3
										{
											OFFSET -0.024004 -0.008353 0.006547
											CHANNELS 3 Zrotation Yrotation Xrotation
											End Site
											{
												OFFSET 0.000000 0.000000 0.000000
											}
										}
									}
								}
							}
						}
					}
				}
			}
		}
	}
}
MOTION
Frames: 5
Frame Time: 0.050000
-0.133770 0.973658 0.074501 -2.312840 1.011295 -15.912994 1.305301 1.783004 13.699540 -6.450130 0.406681 1.847207 9.844794 17.436259 -2.351095 0.000000 0.000000 0.000000 -3.089850 -0.493908 5.694228 4.048550 -0.213015 11.287232 -5.361171 -16.050056 17.467455 0.000000 0.000000 0.000000 -2.508948 -1.491187 25.814598 -5.216280 -1.259770 -16.134800 9.691541 -0.850647 21.813471 6.407619 0.095298 -6.130623 0.000000 0.000000 0.000000 7.606312 -16.016827 7.121776 -11.258661 -56.220214 -14.564265 67.878452 -35.591171 -19.262614 18.053413 1.006887 -20.008090 8.147476 2.878353 0.730551 18.069536 -0.454414 -2.931226 0.000000 0.000000 0.000000 -18.922047 -7.559432 -3.850735 -25.811916 -7.331392 -16.605623 0.000000 0.000000 0.000000 4.584773 -15.551666 -20.299394 -14.984998 -0.989253 -1.789868 0.000000 0.000000 0.000000 -26.598387 -10.641872 -2.770661 -17.114319 -9.090160 -18.072088 0.000000 0.000000 0.000000 12.553056 19.538512 8.231367 -9.663022 -2.778055 1.300553 0.000000 0.000000 0.000000 -14.418666 10.337248 4.968867 5.869015 52.644389 -6.082767 -70.211668 29.898802 -18.121149 -26.170770 -12.802073 -21.171908 -23.277773 6.311062 -1.708047 -13.935584 2.640755 -14.582915 0.000000 0.000000 0.000000 -9.474558 10.093841 -4.102904 3.324442 3.350004 -13.720042 0.000000 0.000000 0.000000 -9.041840 18.412048 -24.255682 11.064985 0.784663 -1.508448 0.000000 0.000000 0.000000 10.978418 11.979300 -5.398454 27.479300 20.292730 -30.578989 0.000000 0.000000 0.000000 -11.733981 -26.784077 14.125598 3.649068 -2.789926 2.422605 0.000000 0.000000 0.000000 
-0.142250 0.974947 0.078461 -2.427007 0.403239 -16.387043 2.112535 1.724446 13.891380 -6.543829 0.376471 2.844254 10.006686 17.924123 -2.049553 0.000000 0.000000 0.000000 -2.191873 -0.691933 7.077726 3.843771 -0.173401 10.312811 -5.367706 -15.928188 16.694907 0.000000 0.000000 0.000000 -2.835401 -1.423714 25.597768 -5.184238 -1.192925 -15.684285 9.599108 0.121254 21.663439 6.731101 0.162872 -6.596320 0.000000 0.000000 0.000000 7.792664 -16.224978 7.222230 -10.563015 -57.548364 -15.396825 70.876802 -35.509829 -20.526700 20.292770 1.501432 -19.553765 8.396605 2.404796 0.543043 16.984766 -0.380257 -2.811100 0.000000 0.000000 0.000000 -14.917998 -6.945109 -3.662196 -28.754827 -7.248289 -14.917867 0.000000 0.000000 0.000000 7.751505 -15.043582 -19.473039 -19.104196 -0.955391 -1.077185 0.000000 0.000000 0.000000 -22.854363 -9.740559 -2.953344 -16.459450 -8.947587 -18.361066 0.000000 0.000000 0.000000 13.058752 20.758214 9.245355 -10.667778 -2.667134 1.615731 0.000000 0.000000 0.000000 -14.184263 10.044122 4.813501 7.823865 53.861094 -5.261460 -71.458737 30.480023 -18.814648 -28.205526 -13.136146 -20.642071 -24.179648 6.888918 -1.954903 -9.052830 2.910666 -12.346735 0.000000 0.000000 0.000000 -10.756763 10.230012 -3.981438 5.024105 4.887947 -17.390920 0.000000 0.000000 0.000000 -11.510382 18.796979 -25.033041 19.163122 2.681853 -4.387073 0.000000 0.000000 0.000000 9.573312 13.457602 -6.271738 33.937092 22.797398 -29.907663 0.000000 0.000000 0.000000 -13.846966 -27.860056 14.558889 10.652849 1.085841 2.114196 0.000000 0.000000 0.000000 
-0.149788 0.975592 0.082420 -2.785982 0.942045 -16.593790 3.026782 1.535017 13.397262 -6.372204 0.252487 4.600710 9.793499 17.287820 -2.439029 0.000000 0.000000 0.000000 -1.284745 -0.909275 8.293183 3.807539 -0.182898 9.141306 -5.787879 -16.453829 16.735684 0.000000 0.000000 0.000000 -2.706936 -1.457857 25.526825 -5.398755 -1.257945 -16.409145 9.768323 -0.275547 21.676708 6.573442 0.096126 -6.202047 0.000000 0.000000 0.000000 7.494492 -16.479431 7.340395 -11.443062 -58.234493 -15.221578 72.122213 -36.472371 -21.627103 21.844915 0.755260 -18.162539 10.326581 1.425619 0.195625 15.526976 -0.530803 -2.810265 0.000000 0.000000 0.000000 -13.554726 -5.785359 -3.275716 -23.424821 -6.547904 -16.411954 0.000000 0.000000 0.000000 8.432925 -14.536135 -18.337499 -19.784797 -0.934198 -0.942165 0.000000 0.000000 0.000000 -18.618043 -8.254418 -3.000637 -20.386118 -9.240936 -16.934668 0.000000 0.000000 0.000000 13.150167 20.982467 9.729402 -7.888008 -2.616974 0.935315 0.000000 0.000000 0.000000 -13.797280 9.780804 4.722799 10.118002 54.658353 -4.367313 -71.854634 32.345857 -20.430877 -28.680839 -12.390583 -19.270932 -24.050126 6.898403 -2.164389 -8.746540 2.825505 -11.874031 0.000000 0.000000 0.000000 -11.617134 10.166609 -3.852286 7.435890 6.325756 -20.171777 0.000000 0.000000 0.000000 -12.384333 19.335293 -25.792076 20.938313 3.678278 -6.091898 0.000000 0.000000 0.000000 12.057669 16.489823 -7.215451 29.738536 22.291921 -33.549018 0.000000 0.000000 0.000000 -13.831609 -28.449697 15.647355 11.876284 3.899802 1.373732 0.000000 0.000000 0.000000 
-0.158268 0.975592 0.086380 -2.766471 0.585569 -16.822245 3.889557 1.385170 12.851129 -6.932719 0.234077 6.450481 10.020836 17.722681 -2.473890 0.000000 0.000000 0.000000 -0.611596 -1.056555 9.057681 3.611173 -0.152596 8.842605 -5.787377 -16.247449 15.746968 0.000000 0.000000 0.000000 -3.241879 -1.329113 24.455287 -5.228117 -1.138136 -15.580688 9.857325 -0.075104 21.369346 6.154098 0.119405 -6.017404 0.000000 0.000000 0.000000 7.024969 -16.218408 7.275892 -12.735129 -58.229803 -14.620864 71.719511 -38.231887 -22.550957 22.139689 1.037637 -16.137373 10.311785 1.701271 0.258260 18.607228 -0.831919 -3.564027 0.000000 0.000000 0.000000 -11.072551 -5.868552 -3.322115 -27.988329 -6.261093 -14.076229 0.000000 0.000000 0.000000 8.006325 -14.018080 -17.256474 -15.839906 -0.814462 -1.200125 0.000000 0.000000 0.000000 -15.773160 -7.443682 -3.103112 -22.342480 -9.881737 -17.582117 0.000000 0.000000 0.000000 11.934465 20.190276 9.795563 -7.115145 -1.961393 1.002865 0.000000 0.000000 0.000000 -13.476211 10.377424 4.970359 11.378918 55.100719 -3.859322 -70.808958 33.698633 -21.131390 -28.125036 -11.002903 -17.485670 -22.438366 5.158591 -1.792221 -8.271302 2.112499 -9.452510 0.000000 0.000000 0.000000 -9.977771 9.481833 -3.658995 13.118137 8.270722 -22.164227 0.000000 0.000000 0.000000 -11.203989 20.202561 -26.451862 21.234132 3.716986 -6.380928 0.000000 0.000000 0.000000 12.983292 17.445198 -7.520474 33.261776 24.559076 -35.353508 0.000000 0.000000 0.000000 -12.745574 -28.174263 16.190800 11.300672 6.128792 0.470938 0.000000 0.000000 0.000000 
-0.166748 0.975269 0.090340 -2.897214 0.336089 -17.498144 5.098617 1.237443 12.611192 -7.636600 0.243985 8.485369 10.144906 17.970002 -2.455191 0.000000 0.000000 0.000000 0.077154 -1.265594 10.234827 3.753589 -0.170660 8.559974 -6.123409 -16.568959 15.088344 0.000000 0.000000 0.000000 -3.594380 -1.265924 24.099596 -5.041032 -1.250266 -15.677877 9.902363 0.170332 22.090105 5.790049 0.196684 -6.214889 0.000000 0.000000 0.000000 7.020834 -15.853242 7.117965 -13.907414 -58.017541 -14.105249 69.784270 -39.908830 -22.737255 20.582212 2.390432 -14.906903 9.049113 1.706274 0.275494 17.234283 -0.831551 -3.309497 0.000000 0.000000 0.000000 -13.108057 -5.537181 -3.345891 -23.312551 -5.428236 -14.338052 0.000000 0.000000 0.000000 11.493687 -13.750250 -16.866511 -21.978134 -1.461110 -1.693871 0.000000 0.000000 0.000000 -16.651493 -6.965737 -2.920061 -24.737557 -9.518056 -15.545557 0.000000 0.000000 0.000000 11.157397 20.684656 10.910154 -6.411003 -2.757373 0.552969 0.000000 0.000000 0.000000 -13.580313 10.705471 5.054155 12.501299 55.365964 -3.362334 -69.290650 34.913106 -21.477109 -22.321592 -10.627500 -17.593118 -20.166224 3.502737 -1.204130 -5.604994 2.125068 -8.927987 0.000000 0.000000 0.000000 -5.420243 10.331018 -4.687823 16.240774 8.913219 -21.966462 0.000000 0.000000 0.000000 -8.136735 20.047604 -26.669419 22.389241 2.974440 -4.881959 0.000000 0.000000 0.000000 15.332056 19.261940 -8.321630 33.910857 24.982406 -35.513630 0.000000 0.000000 0.000000 -12.757608 -27.894116 16.657089 15.024434 5.621118 1.816618 0.000000 0.000000 0.000000 
